<svg width="332" height="175" viewBox="0 0 332 175" fill="none" xmlns="http://www.w3.org/2000/svg">
<path d="M14.58 55.62C12.78 55.14 10.74 54.18 8.46001 52.74C6.18001 51.18 4.20001 49.26 2.52001 46.98C0.840005 44.58 4.98071e-06 41.94 4.98071e-06 39.06C4.98071e-06 37.74 0.240005 36.42 0.720005 35.1C0.720005 34.98 0.720005 34.56 0.720005 33.84C0.840005 33.12 0.960005 32.52 1.08 32.04C2.4 26.04 5.46 21.12 10.26 17.28C15.06 13.32 20.94 10.26 27.9 8.09997C34.86 5.93997 42.12 4.61997 49.68 4.13997C51.24 4.01997 52.74 3.95997 54.18 3.95997C55.62 3.83997 57 3.77997 58.32 3.77997C65.88 3.77997 72.78 4.31998 79.02 5.39998C85.26 6.35998 91.44 7.37998 97.56 8.45997C103.68 9.53997 110.34 10.2 117.54 10.44C119.1 8.51997 120.6 7.13997 122.04 6.29997C123.6 5.33997 124.8 4.79997 125.64 4.67997C126 4.55998 126.48 4.49998 127.08 4.49998C128.28 4.49998 129.36 4.79998 130.32 5.39998C131.28 5.99997 131.76 6.77998 131.76 7.73998C131.76 8.57997 131.28 9.47997 130.32 10.44C129.48 11.28 128.28 12.24 126.72 13.32C125.16 14.4 123.54 15.78 121.86 17.46C119.7 19.5 117.72 21.84 115.92 24.48C114.24 27 113.4 29.52 113.4 32.04C113.4 33.96 113.88 35.58 114.84 36.9C114.96 37.02 115.02 37.2 115.02 37.44C115.02 38.28 114.54 38.7 113.58 38.7C112.86 38.7 112.14 38.28 111.42 37.44C110.34 36.12 109.8 33.54 109.8 29.7C109.8 27.66 110.04 25.5 110.52 23.22C111 20.94 111.72 18.84 112.68 16.92C113.16 16.2 113.58 15.54 113.94 14.94C114.3 14.22 114.72 13.56 115.2 12.96C106.44 13.32 97.86 13.02 89.46 12.06C81.06 10.98 72.6 10.44 64.08 10.44C59.28 10.44 53.76 10.92 47.52 11.88C41.28 12.84 35.16 14.4 29.16 16.56C23.16 18.6 18 21.48 13.68 25.2C9.36001 28.8 6.60001 33.3 5.40001 38.7C5.28001 39.18 5.16001 39.6 5.04 39.96C5.04 40.32 5.04 40.68 5.04 41.04C5.04 43.32 5.7 45.24 7.02 46.8C8.46001 48.36 10.08 49.68 11.88 50.76C13.68 51.72 15.06 52.62 16.02 53.46C16.86 53.94 17.28 54.42 17.28 54.9C17.28 55.38 16.98 55.68 16.38 55.8C15.9 55.92 15.3 55.86 14.58 55.62ZM32.4 113.4C32.04 113.4 31.32 113.28 30.24 113.04C29.16 112.8 28.14 112.5 27.18 112.14C26.22 111.78 25.68 111.36 25.56 110.88C25.32 108.48 25.92 105.06 27.36 100.62C28.92 96.18 30.96 91.26 33.48 85.86C36.12 80.46 38.82 75.18 41.58 70.02C38.34 70.38 35.88 70.56 34.2 70.56C33.24 70.56 32.22 70.14 31.14 69.3C30.18 68.46 29.7 67.32 29.7 65.88C29.7 64.68 30.36 63.66 31.68 62.82C33 61.86 34.44 61.14 36 60.66C37.68 60.18 38.88 59.94 39.6 59.94C41.16 59.94 42.24 60.54 42.84 61.74C43.44 62.82 44.04 63.36 44.64 63.36H45.36C47.16 60 48.72 57 50.04 54.36C51.48 51.72 52.62 49.62 53.46 48.06C54.42 46.02 54.9 44.34 54.9 43.02C54.9 42.42 54.84 42 54.72 41.76C54.72 41.4 54.66 41.1 54.54 40.86C54.78 39.42 55.68 37.5 57.24 35.1C58.8 32.7 60.72 30.3 63 27.9C65.28 25.5 67.68 23.52 70.2 21.96C72.84 20.28 75.36 19.44 77.76 19.44C78.48 19.44 79.74 19.74 81.54 20.34C83.34 20.82 84.96 21.66 86.4 22.86C87.84 24.06 88.44 25.62 88.2 27.54C87.36 26.94 86.64 26.64 86.04 26.64C82.8 26.64 79.26 28.38 75.42 31.86C71.58 35.34 67.68 39.9 63.72 45.54C59.76 51.06 55.98 56.94 52.38 63.18C54.42 62.94 56.46 62.7 58.5 62.46C60.54 62.22 62.58 61.92 64.62 61.56C68.94 60.96 73.38 60.36 77.94 59.76C82.62 59.16 87.06 58.86 91.26 58.86C91.98 58.86 92.76 58.98 93.6 59.22C94.44 59.34 94.86 59.64 94.86 60.12C94.86 60.36 94.56 60.72 93.96 61.2C93.48 61.56 92.52 62.04 91.08 62.64C89.16 63.36 85.8 64.14 81 64.98C76.2 65.82 70.86 66.66 64.98 67.5C59.22 68.22 53.76 68.88 48.6 69.48C45.6 75.12 42.9 80.46 40.5 85.5C38.1 90.42 36.3 94.38 35.1 97.38C34.62 98.58 34.26 99.66 34.02 100.62C33.78 101.58 33.66 102.36 33.66 102.96C33.66 104.64 34.26 105.48 35.46 105.48C36.3 105.48 37.2 105.18 38.16 104.58C39.12 103.86 40.02 103.02 40.86 102.06C42.18 100.5 43.38 99.06 44.46 97.74C45.54 96.3 46.5 95.7 47.34 95.94C47.46 96.06 47.52 96.24 47.52 96.48C47.52 97.2 47.16 98.04 46.44 99C45.72 99.96 45.3 100.5 45.18 100.62C44.22 101.82 43.02 103.44 41.58 105.48C40.26 107.52 38.82 109.32 37.26 110.88C35.7 112.56 34.08 113.4 32.4 113.4ZM166.373 110.34C161.333 110.34 157.793 109.08 155.753 106.56C153.833 104.04 152.873 100.92 152.873 97.2C152.873 93.72 153.653 89.34 155.213 84.06C156.893 78.78 159.053 73.08 161.693 66.96C164.333 60.84 167.153 54.78 170.153 48.78C173.273 42.66 176.333 37.08 179.333 32.04C182.453 26.88 185.153 22.74 187.433 19.62C189.713 16.62 192.173 13.62 194.813 10.62C197.453 7.61998 200.393 5.09998 203.633 3.05997C206.873 1.01997 210.533 -3.00407e-05 214.613 -3.00407e-05C217.373 -3.00407e-05 219.713 0.779971 221.633 2.33997C223.673 3.77997 224.693 5.99997 224.693 8.99997C224.693 10.2 224.453 11.58 223.973 13.14C223.613 14.7 222.953 16.32 221.993 18C214.673 30.72 205.913 42.48 195.713 53.28C185.633 64.08 174.953 74.1 163.673 83.34C163.193 85.14 162.713 86.76 162.233 88.2C161.873 89.64 161.573 90.78 161.333 91.62C161.213 92.22 161.153 92.88 161.153 93.6C161.153 94.2 161.153 94.8 161.153 95.4C161.153 98.28 161.633 100.8 162.593 102.96C163.553 105.12 165.173 106.2 167.453 106.2C169.613 106.2 172.253 105.18 175.373 103.14C178.613 100.98 181.853 98.4 185.093 95.4C188.333 92.28 191.273 89.28 193.913 86.4C196.553 83.52 198.413 81.3 199.493 79.74C199.853 79.38 200.213 79.2 200.573 79.2C201.053 79.2 201.413 79.44 201.653 79.92C202.013 80.4 202.013 81 201.653 81.72C200.453 83.76 198.533 86.28 195.893 89.28C193.253 92.28 190.313 95.34 187.073 98.46C183.833 101.46 180.713 104.1 177.713 106.38C173.993 109.02 170.213 110.34 166.373 110.34ZM166.193 76.14C170.753 73.02 175.493 69 180.413 64.08C185.333 59.04 190.133 53.58 194.813 47.7C199.613 41.82 203.933 36 207.773 30.24C211.733 24.48 214.913 19.26 217.313 14.58C218.033 13.26 218.513 12.12 218.753 11.16C219.113 10.08 219.293 9.11997 219.293 8.27997C219.293 5.99997 218.333 4.85997 216.413 4.85997C214.733 4.85997 212.633 5.75997 210.113 7.55997C203.633 12.6 197.633 19.08 192.113 27C186.593 34.8 181.673 43.02 177.353 51.66C173.033 60.3 169.313 68.46 166.193 76.14ZM243.481 174.6C242.041 174.24 240.781 173.88 239.701 173.52C237.421 172.32 235.801 170.94 234.841 169.38C233.881 167.94 233.401 166.38 233.401 164.7C233.401 161.94 234.361 158.94 236.281 155.7C238.081 152.58 240.481 149.34 243.481 145.98C246.481 142.38 250.261 138.72 254.821 135C259.501 131.28 264.361 127.68 269.401 124.2C274.441 120.84 278.881 117.9 282.721 115.38C284.761 111.18 286.861 106.68 289.021 101.88C291.301 97.08 293.461 92.46 295.501 88.02C297.541 83.46 299.281 79.32 300.721 75.6C302.281 71.88 303.421 69 304.141 66.96C302.221 69.24 300.001 72.12 297.481 75.6C294.961 78.96 292.201 82.56 289.201 86.4C286.201 90.12 283.081 93.66 279.841 97.02C276.721 100.38 273.481 103.14 270.121 105.3C266.761 107.34 263.461 108.36 260.221 108.36C255.421 108.36 252.061 107.16 250.141 104.76C248.341 102.24 247.441 99.3 247.441 95.94C247.441 93.54 247.741 91.14 248.341 88.74C249.061 86.34 249.961 84.12 251.041 82.08C251.761 80.64 252.901 78.72 254.461 76.32C256.021 73.92 257.821 71.46 259.861 68.94C261.901 66.42 263.941 64.32 265.981 62.64C268.141 60.96 270.181 60.12 272.101 60.12C274.381 60.12 276.121 60.96 277.321 62.64C278.521 64.2 278.641 65.28 277.681 65.88C275.761 67.2 273.361 69.24 270.481 72C267.721 74.64 264.961 77.7 262.201 81.18C261.481 82.14 260.581 83.64 259.501 85.68C258.541 87.72 257.641 89.94 256.801 92.34C255.961 94.62 255.541 96.72 255.541 98.64C255.541 99.48 255.661 100.32 255.901 101.16C256.141 101.88 256.561 102.42 257.161 102.78C258.121 103.5 259.201 103.86 260.401 103.86C262.081 103.86 263.941 103.32 265.981 102.24C268.141 101.16 270.181 99.78 272.101 98.1C278.821 91.62 284.821 84.84 290.101 77.76C295.381 70.68 300.961 63.66 306.841 56.7C307.201 55.5 308.221 54.9 309.901 54.9C311.821 54.9 313.801 55.5 315.841 56.7C318.001 57.78 318.901 58.68 318.541 59.4C317.461 61.8 316.021 64.98 314.221 68.94C312.541 72.9 310.681 77.16 308.641 81.72C306.601 86.28 304.561 90.84 302.521 95.4C300.481 99.84 298.621 103.86 296.941 107.46C298.381 106.74 300.961 104.94 304.681 102.06C308.401 99.18 312.481 95.7 316.921 91.62C321.361 87.42 325.381 83.1 328.981 78.66C329.701 77.94 330.241 77.58 330.601 77.58C331.321 77.58 331.681 78.06 331.681 79.02C331.681 79.86 331.321 80.82 330.601 81.9C328.801 84.3 326.281 87.12 323.041 90.36C319.921 93.6 316.501 96.9 312.781 100.26C309.181 103.5 305.641 106.44 302.161 109.08C298.681 111.84 295.681 113.94 293.161 115.38C289.441 123.3 285.841 130.74 282.361 137.7C278.881 144.78 275.701 150.48 272.821 154.8C270.901 157.8 268.561 160.86 265.801 163.98C263.041 167.1 260.041 169.68 256.801 171.72C253.561 173.88 250.141 174.96 246.541 174.96C246.061 174.96 245.581 174.9 245.101 174.78C244.621 174.78 244.081 174.72 243.481 174.6ZM244.021 170.64C244.981 170.64 246.121 170.34 247.441 169.74C248.881 169.14 250.381 168.18 251.941 166.86C256.501 163.14 260.341 158.76 263.461 153.72C266.581 148.8 269.341 143.58 271.741 138.06C274.261 132.54 276.781 127.26 279.301 122.22C274.621 125.7 269.341 129.78 263.461 134.46C257.581 139.26 252.241 144 247.441 148.68C244.561 151.56 242.461 154.38 241.141 157.14C239.821 160.02 239.161 162.54 239.161 164.7C239.161 168.66 240.781 170.64 244.021 170.64Z" fill="white"/>
</svg>
